HIERARCHY
ROOT Hips
{
	OFFSET 0.000000 0.000000 0.000000 
	CHANNELS 6 Xposition Yposition Zposition Zrotation Yrotation Xrotation
	JOINT LeftUpLeg
	{
		OFFSET 1.363060 -1.794630 0.839290 
		CHANNELS 3 Zrotation Yrotation Xrotation
		JOINT LeftLeg
		{
			OFFSET 2.448110 -6.726130 0.000000 
			CHANNELS 3 Zrotation Yrotation Xrotation
			JOINT LeftFoot
			{
				OFFSET 2.562200 -7.039590 0.000000 
				CHANNELS 3 Zrotation Yrotation Xrotation
				JOINT LeftToeBase
				{
					OFFSET 0.157640 -0.433110 2.322550 
					CHANNELS 3 Zrotation Yrotation Xrotation
					End Site
					{
						OFFSET 0.000000 0.000000 0.000000 
					}
				}
			}
		}
	}
	JOINT RightUpLeg
	{
		OFFSET -1.305520 -1.794630 0.839290 
		CHANNELS 3 Zrotation Yrotation Xrotation
		JOINT RightLeg
		{
			OFFSET -2.542530 -6.985550 0.000000 
			CHANNELS 3 Zrotation Yrotation Xrotation
			JOINT RightFoot
			{
				OFFSET -2.568260 -7.056230 0.000000 
				CHANNELS 3 Zrotation Yrotation Xrotation
				JOINT RightToeBase
				{
					OFFSET -0.164730 -0.452590 2.363150 
					CHANNELS 3 Zrotation Yrotation Xrotation
					End Site
					{
						OFFSET 0.000000 0.000000 0.000000 
					}
				}
			}
		}
	}
	JOINT Spine
	{
		OFFSET 0.028270 2.035590 -0.193380 
		CHANNELS 3 Zrotation Yrotation Xrotation
		JOINT Spine1
		{
			OFFSET 0.056720 2.048850 -0.042750 
			CHANNELS 3 Zrotation Yrotation Xrotation
			JOINT Neck1
			{
				OFFSET -0.054170 1.746240 0.172020 
				CHANNELS 3 Zrotation Yrotation Xrotation
				JOINT Head
				{
					OFFSET 0.104070 1.761360 -0.123970 
					CHANNELS 3 Zrotation Yrotation Xrotation
					End Site
					{
						OFFSET 0.000000 0.000000 0.000000 
					}
				}
			}
			JOINT LeftArm
			{
				OFFSET 3.362410 1.200890 -0.311210 
				CHANNELS 3 Zrotation Yrotation Xrotation
				JOINT LeftForeArm
				{
					OFFSET 4.983000 -0.000000 -0.000000 
					CHANNELS 3 Zrotation Yrotation Xrotation
					JOINT LeftHand
					{
						OFFSET 3.483560 -0.000000 -0.000000 
						CHANNELS 3 Zrotation Yrotation Xrotation
						JOINT LeftHandIndex1
						{
							OFFSET 0.715260 -0.000000 -0.000000 
							CHANNELS 3 Zrotation Yrotation Xrotation
							End Site
							{
								OFFSET 0.000000 0.000000 0.000000 
							}
						}
					}
				}
			}
			JOINT RightArm
			{
				OFFSET -3.136600 1.374050 -0.404650 
				CHANNELS 3 Zrotation Yrotation Xrotation
				JOINT RightForeArm
				{
					OFFSET -5.241900 -0.000000 -0.000000 
					CHANNELS 3 Zrotation Yrotation Xrotation
					JOINT RightHand
					{
						OFFSET -3.444170 -0.000000 -0.000000 
						CHANNELS 3 Zrotation Yrotation Xrotation
						JOINT RightHandIndex1
						{
							OFFSET -0.622530 -0.000000 -0.000000 
							CHANNELS 3 Zrotation Yrotation Xrotation
							End Site
							{
								OFFSET 0.000000 0.000000 0.000000 
							}
						}
					}
				}
			}
		}
	}
}
MOTION
Frames: 16
Frame Time: 0.041667
-14.362997 17.793175 -15.047164 -1.663070 23.084912 12.641742 -12.163591 -7.813851 -23.442196 0.856155 7.887826 25.925190 -2.827005 10.169248 -0.990456 0.064000 -1.632700 -4.491700 17.030979 9.449440 -25.082510 -2.103335 -9.425001 31.509711 1.977190 -7.830492 -3.614221 -0.142800 -2.435300 6.710200 7.156653 -1.096517 1.053845 3.267419 -0.269169 -1.975985 -4.074142 3.222402 24.846619 -1.514700 0.734800 12.016300 -85.376535 2.660886 15.640288 20.185174 -27.715774 -5.077693 -0.136349 -0.324740 -4.261731 -7.125000 0.000000 0.000000 76.226945 0.976234 19.161361 -15.041806 21.993046 -3.452032 0.597514 -0.526673 1.890141 7.125000 0.000000 0.000000 
-14.365709 17.786445 -15.040536 -1.857354 22.903274 12.607639 -12.014040 -7.660622 -23.701496 0.925844 8.015753 26.271479 -2.822739 10.172419 -1.128972 0.073000 -1.743400 -4.797200 17.230395 9.523378 -25.065548 -2.103480 -9.403404 31.503712 1.892670 -7.631120 -3.621642 -0.143100 -2.438100 6.718100 7.198899 -0.992616 1.100155 3.189679 -0.213801 -1.971664 -4.048667 3.207736 24.745676 -1.508700 0.735200 11.964100 -85.338060 2.719423 15.665979 20.285438 -27.841678 -5.128005 -0.134039 -0.326859 -4.269046 -7.125000 0.000000 0.000000 76.279808 0.953064 19.123660 -15.067280 22.025243 -3.462473 0.594552 -0.527237 1.948801 7.125000 0.000000 0.000000 
-14.370831 17.778712 -15.035012 -1.985605 22.738124 12.660079 -11.935183 -7.421523 -24.048031 0.988753 8.134011 26.591280 -2.775761 10.061658 -1.222005 0.081500 -1.842000 -5.069300 17.372039 9.657905 -25.115623 -2.122614 -9.404556 31.569590 1.848773 -7.526156 -3.676198 -0.135000 -2.367900 6.523600 7.210912 -0.930905 1.088478 3.142596 -0.180816 -1.971380 -4.053918 3.284212 24.650915 -1.505300 0.772900 11.921300 -85.280511 2.687228 15.618352 20.330972 -27.896986 -5.148853 -0.130008 -0.327824 -4.311392 -7.125000 0.000000 0.000000 76.317324 1.079955 19.164119 -14.959761 21.878526 -3.419335 0.597537 -0.541061 2.017606 7.125000 0.000000 0.000000 
-14.373241 17.771983 -15.028483 -2.093217 22.618414 12.639947 -11.851272 -7.398213 -24.211224 1.052036 8.240435 26.910626 -2.751764 10.007544 -1.476161 0.068800 -1.692800 -4.657500 17.506784 9.667843 -25.158172 -2.140300 -9.414705 31.640384 1.801961 -7.417839 -3.706565 -0.124300 -2.272900 6.260500 7.305380 -0.899701 1.200283 3.133185 -0.159231 -1.947687 -3.986524 3.410348 24.650189 -1.449300 0.821100 11.967100 -85.349172 2.501491 15.475872 20.301806 -27.860902 -5.134035 -0.132469 -0.326050 -4.204773 -7.125000 0.000000 0.000000 76.209374 1.235569 19.353290 -14.911933 21.814711 -3.400917 0.595427 -0.548248 1.997903 7.125000 0.000000 0.000000 
-14.375451 17.762743 -15.021553 -2.106585 22.592761 12.604783 -11.839813 -7.502398 -24.287503 1.122311 8.343212 27.245071 -2.777488 10.085432 -1.742914 0.071600 -1.726400 -4.750200 17.574697 9.569465 -25.205653 -2.160087 -9.439974 31.729665 1.768477 -7.344512 -3.724458 -0.125500 -2.283400 6.289500 7.345397 -0.905829 1.301537 3.134449 -0.157969 -1.957823 -3.928752 3.464925 24.639277 -1.402400 0.836800 11.987400 -85.406442 2.394362 15.392226 20.309954 -27.873166 -5.139399 -0.135774 -0.325843 -4.133940 -7.125000 0.000000 0.000000 76.157170 1.272642 19.411299 -14.931239 21.842209 -3.409104 0.589377 -0.547886 1.916615 7.125000 0.000000 0.000000 
-14.377158 17.757319 -15.012715 -2.093351 22.590389 12.603509 -11.866496 -7.524914 -24.400882 1.190927 8.447945 27.592469 -2.703549 9.897292 -2.010375 0.049600 -1.437900 -3.954500 17.615431 9.447265 -25.266384 -2.180423 -9.470096 31.830593 1.681638 -7.151457 -3.748680 -0.126900 -2.296200 6.324900 7.309747 -0.908898 1.291531 3.130414 -0.159427 -2.006137 -3.918973 3.414132 24.570678 -1.404800 0.819000 11.935800 -85.391602 2.411042 15.278837 20.282268 -27.843172 -5.126481 -0.137791 -0.323755 -4.058719 -7.125000 0.000000 0.000000 76.195267 1.194398 19.461268 -14.981721 21.908010 -3.424798 0.582284 -0.528643 1.809564 7.125000 0.000000 0.000000 
-14.376756 17.751393 -15.005182 -2.123501 22.549902 12.589873 -11.862132 -7.512630 -24.581768 1.274276 8.571957 27.984476 -2.667575 9.811904 -2.156358 0.047700 -1.410200 -3.878200 17.699838 9.321040 -25.337606 -2.201668 -9.496360 31.933795 1.557347 -6.870298 -3.759022 -0.125400 -2.282800 6.287800 7.153325 -0.800198 1.394003 3.010452 -0.106190 -1.963788 -3.918602 3.230495 24.377686 -1.436800 0.750000 11.828800 -85.239812 2.343836 15.472823 20.257453 -27.817420 -5.116458 -0.138850 -0.320550 -3.969692 -7.125000 0.000000 0.000000 76.318672 1.178511 19.246073 -15.011617 21.936932 -3.430941 0.575012 -0.512867 1.869959 7.125000 0.000000 0.000000 
-14.378765 17.743760 -14.994536 -2.128398 22.523229 12.535988 -11.917749 -7.352085 -24.807966 1.379679 8.722342 28.434916 -2.724179 9.974560 -2.011434 0.128100 -2.307100 -6.355200 17.738797 9.324580 -25.294891 -2.221565 -9.513733 32.020014 1.495245 -6.731992 -3.841565 -0.147300 -2.473500 6.816300 7.171542 -0.760954 1.601735 3.045233 -0.077471 -1.866425 -3.863034 3.200490 24.165446 -1.411700 0.742300 11.733900 -85.241100 2.309783 15.536439 20.346002 -27.923437 -5.159662 -0.136286 -0.319732 -3.914189 -7.125000 0.000000 0.000000 76.285938 1.190078 19.321775 -15.075165 22.019353 -3.456482 0.581461 -0.505448 1.611639 7.125000 0.000000 0.000000 
-14.384289 17.736931 -14.980375 -2.171350 22.526152 12.484114 -11.896191 -7.226986 -25.073608 1.494774 8.894762 28.970291 -2.599408 9.650470 -2.038402 0.142900 -2.436000 -6.712400 17.844920 9.381603 -25.235494 -2.247545 -9.529226 32.116619 1.525667 -6.804798 -3.974543 -0.135700 -2.374500 6.541700 7.203775 -0.753857 1.768886 3.081971 -0.064648 -1.789452 -3.856490 3.258173 23.983657 -1.407900 0.775700 11.657200 -85.224140 2.290057 15.548885 20.438602 -28.034687 -5.204831 -0.133585 -0.318944 -3.977050 -7.125000 0.000000 0.000000 76.335059 1.210459 19.260660 -15.097102 22.046912 -3.466683 0.578839 -0.509719 1.600031 7.125000 0.000000 0.000000 
-14.390315 17.731507 -14.970934 -2.220888 22.568848 12.331020 -11.866747 -7.096166 -25.281135 1.624850 9.088404 29.585966 -2.416692 9.171934 -2.180909 0.116900 -2.204000 -6.069900 17.991763 9.318785 -25.137622 -2.271751 -9.548688 32.220269 1.495371 -6.742101 -4.105651 -0.121800 -2.249700 6.196400 7.057788 -0.685306 1.892123 2.989625 -0.028066 -1.898446 -3.831944 3.191963 24.075120 -1.418700 0.751800 11.735400 -85.031521 2.181382 15.749189 20.405358 -27.998558 -5.188788 -0.131402 -0.313356 -3.961392 -7.125000 0.000000 0.000000 76.504500 1.243302 19.120906 -15.090991 22.032614 -3.463240 0.575589 -0.513348 1.549169 7.125000 0.000000 0.000000 
-14.392525 17.720760 -14.960991 -2.268109 22.527716 12.254770 -11.842663 -7.068163 -25.549535 1.780698 9.305853 30.276357 -2.357405 9.029092 -2.306542 0.120400 -2.236600 -6.159900 18.113062 9.246807 -25.109238 -2.291577 -9.563311 32.306786 1.387256 -6.493796 -4.108319 -0.122900 -2.260300 6.225700 6.747652 -0.537960 1.935040 2.774919 0.038471 -1.973725 -3.825405 3.051555 24.075411 -1.466400 0.713300 11.728200 -84.760209 2.103619 15.880514 20.326474 -27.905382 -5.147519 -0.124471 -0.306793 -3.791003 -7.125000 0.000000 0.000000 76.799158 1.126099 18.772598 -15.149548 22.101492 -3.487026 0.567422 -0.518754 1.561179 7.125000 0.000000 0.000000 
-14.393831 17.710717 -14.950043 -2.261646 22.489172 12.235553 -11.880281 -7.132917 -25.852357 1.957607 9.537839 31.040013 -2.313243 8.925878 -2.442265 0.116100 -2.197100 -6.050800 18.165872 9.158699 -25.120255 -2.302470 -9.573281 32.356573 1.318554 -6.338125 -4.109053 -0.117800 -2.212400 6.093000 6.731381 -0.481607 1.936145 2.760953 0.068270 -2.032766 -3.735074 3.020078 23.949299 -1.416400 0.701900 11.650700 -84.772419 2.164760 15.889474 20.356412 -27.942574 -5.161754 -0.121041 -0.302159 -3.709518 -7.125000 0.000000 0.000000 76.798673 0.922487 18.854423 -15.314715 22.325813 -3.554867 0.565526 -0.500900 1.235982 7.125000 0.000000 0.000000 
-14.395438 17.705093 -14.936685 -2.385837 22.412989 12.232629 -11.837500 -7.053090 -26.363060 2.154831 9.804841 31.882271 -2.244669 8.760449 -2.513575 0.118800 -2.221900 -6.119400 18.325330 9.171432 -25.132106 -2.314785 -9.568370 32.397031 1.243913 -6.162213 -4.107221 -0.116200 -2.198200 6.053600 6.919344 -0.455692 2.019957 2.806817 0.092056 -1.942273 -3.717558 3.084578 23.848712 -1.379500 0.718500 11.610600 -84.910171 2.199478 15.804402 20.503377 -28.120465 -5.235791 -0.121857 -0.308079 -3.775466 -7.125000 0.000000 0.000000 76.664798 0.982410 18.926632 -15.306803 22.318325 -3.552353 0.567741 -0.500394 1.111695 7.125000 0.000000 0.000000 
-14.396341 17.702180 -14.922323 -2.447018 22.386409 12.203097 -11.846572 -7.018488 -26.867282 2.379862 10.092715 32.806060 -2.243007 8.775571 -2.492056 0.149000 -2.487500 -6.854900 18.442211 9.156634 -25.088056 -2.317958 -9.557022 32.406099 1.195023 -6.055392 -4.220333 -0.113700 -2.173700 5.985900 6.894712 -0.393329 2.090499 2.766113 0.126824 -1.889003 -3.634462 3.108534 24.007964 -1.339500 0.730700 11.696800 -84.880671 2.260574 15.940565 20.635516 -28.286293 -5.306213 -0.125147 -0.312192 -3.923003 -7.125000 0.000000 0.000000 76.633663 1.119926 19.028767 -15.200583 22.170243 -3.504441 0.576963 -0.496866 0.838516 7.125000 0.000000 0.000000 
-14.397647 17.698765 -14.911174 -2.474390 22.400851 12.206153 -11.882303 -6.972167 -27.432279 2.626654 10.398218 33.814571 -2.112394 8.426791 -2.356499 0.133400 -2.354300 -6.486000 18.530461 9.116589 -25.085345 -2.317331 -9.544172 32.398906 1.168720 -5.999472 -4.296624 -0.112900 -2.166200 5.965100 6.862481 -0.324048 2.101463 2.743041 0.163238 -1.919679 -3.425150 3.122150 24.213768 -1.240400 0.744800 11.809600 -84.796515 2.290037 16.129605 20.690877 -28.351882 -5.333230 -0.120623 -0.313464 -4.040418 -7.125000 0.000000 0.000000 76.646676 1.232330 18.993251 -15.122132 22.060736 -3.469746 0.587203 -0.495159 0.678417 7.125000 0.000000 0.000000 
-14.398250 17.695049 -14.898520 -2.531249 22.415245 12.176020 -11.876251 -6.902270 -27.998560 2.885504 10.715426 34.871706 -1.936481 7.953205 -2.343492 0.120800 -2.240300 -6.170300 18.652345 9.064797 -25.056565 -2.316639 -9.527306 32.390451 1.069389 -5.766508 -4.263628 -0.131800 -2.340000 6.446300 6.648063 -0.212841 2.193823 2.591714 0.216849 -1.899207 -3.329935 3.016819 24.315664 -1.238300 0.720900 11.873800 -84.548523 2.257874 16.459461 20.752131 -28.432525 -5.367567 -0.120696 -0.312584 -4.123857 -7.125000 0.000000 0.000000 76.840640 1.287933 18.736128 -15.128006 22.054619 -3.469355 0.586453 -0.495025 0.523314 7.125000 0.000000 0.000000 
